<svg width="23" height="19" viewBox="0 0 23 19" fill="none" xmlns="http://www.w3.org/2000/svg">
<path d="M4.6766 3.19982L4.37159 1.39982H3.27548C3.27548 1.39982 2.54266 0.319824 1.86116 0.319824C1.05246 0.319824 0.394791 0.965664 0.394791 1.75982C0.394791 2.55398 1.05246 3.19982 1.86116 3.19982C2.54266 3.19982 3.11161 2.73902 3.27548 2.11982H3.74985L3.93315 3.19982H3.91959L5.81487 12.5656C4.91122 12.6333 4.1586 13.3165 4.06989 14.1762C4.01783 14.682 4.1872 15.1885 4.53473 15.5651C4.88263 15.9431 5.37826 16.1598 5.89369 16.1598H6.62688C6.62688 17.3511 7.61338 18.3198 8.82644 18.3198C10.0395 18.3198 11.026 17.3511 11.026 16.1598H15.0585C15.0585 17.3511 16.045 18.3198 17.2581 18.3198C18.4711 18.3198 19.4576 17.3511 19.4576 16.1598H20.924C21.1267 16.1598 21.2906 15.9989 21.2906 15.7998C21.2906 15.6007 21.1267 15.4398 20.924 15.4398H19.3293C19.0265 14.6021 18.2138 13.9998 17.2581 13.9998C16.3024 13.9998 15.4896 14.6021 15.1868 15.4398H10.8977C10.5949 14.6021 9.78215 13.9998 8.82644 13.9998C7.87073 13.9998 7.05799 14.6021 6.75519 15.4398H5.89369C5.58502 15.4398 5.28808 15.3095 5.07839 15.0823C4.86686 14.8523 4.76752 14.5564 4.79941 14.2486C4.85513 13.7053 5.36616 13.2802 5.96261 13.2802H6.24892C6.25625 13.2802 6.26358 13.2802 6.27092 13.2802L14.4456 13.2777H14.4467L18.5943 13.2762L20.5662 13.2755C21.5747 13.2755 22.3948 12.4702 22.3948 11.4802V3.1955L4.6766 3.19982ZM1.86116 2.47982C1.45681 2.47982 1.12798 2.1569 1.12798 1.75982C1.12798 1.36274 1.45681 1.03982 1.86116 1.03982C2.26552 1.03982 2.59435 1.36274 2.59435 1.75982C2.59435 2.1569 2.26552 2.47982 1.86116 2.47982ZM17.2581 14.7198C18.0668 14.7198 18.7245 15.3657 18.7245 16.1598C18.7245 16.954 18.0668 17.5998 17.2581 17.5998C16.4494 17.5998 15.7917 16.954 15.7917 16.1598C15.7917 15.3657 16.4494 14.7198 17.2581 14.7198ZM8.82644 14.7198C9.63514 14.7198 10.2928 15.3657 10.2928 16.1598C10.2928 16.954 9.63514 17.5998 8.82644 17.5998C8.01773 17.5998 7.36006 16.954 7.36006 16.1598C7.36006 15.3657 8.01773 14.7198 8.82644 14.7198ZM21.662 9.39542L18.4433 12.5559L15.332 12.5569L21.662 6.34046V9.39542ZM21.662 5.32238L14.2949 12.5573L11.1825 12.5584L19.9837 3.91586L21.662 3.9155V5.32238ZM7.03416 12.5595L15.835 3.91694L18.9466 3.91622L10.1454 12.5584L7.03416 12.5595ZM5.26425 6.15146L7.53749 3.9191L10.6495 3.91838L5.78005 8.6999L5.26425 6.15146ZM6.5004 3.91946L5.09232 5.30222L4.81261 3.92018L6.5004 3.91946ZM5.95161 9.5495L11.6862 3.91802L14.7979 3.9173L6.48574 12.0796C6.47804 12.0871 6.47547 12.0969 6.46888 12.1044L5.95161 9.5495ZM20.5662 12.5555L19.48 12.5559L21.6616 10.4139V11.4802C21.662 12.0731 21.1704 12.5555 20.5662 12.5555Z" fill="white"/>
</svg>
