<svg width="22" height="24" viewBox="0 0 22 24" fill="none" xmlns="http://www.w3.org/2000/svg">
<g clip-path="url(#clip0_691_71)">
<path d="M18.218 22.6172H3.78172C3.54896 22.6172 3.36003 22.4202 3.36003 22.1764V13.9584L0.420595 13.9522C0.250238 13.9518 0.0967402 13.8442 0.031793 13.6798C-0.0331543 13.5149 0.00310621 13.3258 0.1233 13.1997L10.6916 2.15105C10.7877 2.05099 10.9252 2.00646 11.0572 2.02761C11.1824 2.04876 11.2912 2.12767 11.3545 2.2414L13.8149 4.81366V3.99241C13.8149 3.74907 14.0033 3.55155 14.2366 3.55155H16.7138C16.947 3.55155 17.1355 3.74907 17.1355 3.99241V8.28526L21.8764 13.242C21.997 13.3681 22.0332 13.5581 21.9679 13.723C21.9025 13.8874 21.7486 13.9945 21.5782 13.9945C21.5778 13.9945 21.5778 13.9945 21.5774 13.9945L18.6392 13.9883V22.1764C18.6396 22.4202 18.4511 22.6172 18.218 22.6172ZM4.20341 21.7356H17.7963V13.5467C17.7963 13.4294 17.8406 13.317 17.9203 13.2345C17.9996 13.1521 18.1063 13.1058 18.218 13.1058C18.2184 13.1058 18.2184 13.1058 18.2188 13.1058L20.5586 13.1106L16.4162 8.77943C16.3369 8.69656 16.2926 8.58457 16.2926 8.46775V4.43327H14.6587V5.8783C14.6587 6.0564 14.5562 6.21731 14.3985 6.28564C14.2412 6.35441 14.0599 6.3165 13.9389 6.18998L10.9801 3.09665L1.4377 13.0728L3.7826 13.0776C4.01536 13.078 4.20341 13.2751 4.20341 13.5185C4.20341 13.5184 4.20341 21.7356 4.20341 21.7356Z" fill="white"/>
</g>
<defs>
<clipPath id="clip0_691_71">
<rect width="22" height="23" fill="white" transform="translate(0 0.819824)"/>
</clipPath>
</defs>
</svg>
