<svg width="21" height="21" viewBox="0 0 21 21" fill="none" xmlns="http://www.w3.org/2000/svg">
<g clip-path="url(#clip0_694_92)">
<path d="M17.588 3.13933C13.6852 -0.768303 7.35357 -0.772188 3.44589 3.1306C-0.461742 7.03348 -0.465675 13.3651 3.43721 17.2728C7.33999 21.1804 13.6717 21.1843 17.5794 17.2815C21.4869 13.3787 21.4909 7.04696 17.588 3.13933ZM11.9089 16.5515C11.9089 16.7058 11.7838 16.8308 11.6296 16.8308H9.39564C9.24143 16.8308 9.11639 16.7058 9.11639 16.5515V8.25848C9.11639 8.10418 9.24143 7.97924 9.39564 7.97924H11.6296C11.7838 7.97924 11.9089 8.10413 11.9089 8.25848V16.5515ZM10.5126 6.82033C9.61963 6.82033 8.89307 6.09387 8.89307 5.20082C8.89307 4.30788 9.61958 3.58127 10.5126 3.58127C11.4057 3.58127 12.1322 4.30783 12.1322 5.20082C12.1322 6.09387 11.4056 6.82033 10.5126 6.82033Z" fill="white"/>
</g>
<defs>
<clipPath id="clip0_694_92">
<rect width="20" height="20" fill="white" transform="translate(0.512573 0.206055)"/>
</clipPath>
</defs>
</svg>
