<svg width="17" height="17" viewBox="0 0 17 17" fill="none" xmlns="http://www.w3.org/2000/svg">
<path d="M15.8504 12.376C15.266 11.2712 13.2366 10.0733 13.1472 10.0209C12.8865 9.87244 12.6143 9.79385 12.3597 9.79385C11.981 9.79385 11.6711 9.96732 11.4833 10.2828C11.1865 10.6379 10.8183 11.0529 10.729 11.1172C10.0374 11.5864 9.49611 11.5331 8.89714 10.9342L5.55424 7.59096C4.95906 6.99578 4.90434 6.44775 5.3703 5.76002C5.43549 5.67008 5.85052 5.30163 6.20559 5.00447C6.43202 4.86972 6.58743 4.66948 6.65554 4.42384C6.74605 4.097 6.6794 3.71254 6.46578 3.33797C6.41543 3.25182 5.21692 1.22209 4.11271 0.637972C3.90665 0.528831 3.6744 0.471205 3.44156 0.471205C3.05797 0.471205 2.69708 0.620801 2.42583 0.89176L1.68716 1.63013C0.518921 2.79808 0.0960374 4.12203 0.429571 5.56502C0.707807 6.7676 1.51865 8.04731 2.83998 9.36835L7.11975 13.6481C8.79208 15.3204 10.3864 16.1685 11.8585 16.1685C12.9412 16.1685 13.9508 15.7084 14.858 14.8012L15.5963 14.0629C16.0451 13.6144 16.147 12.9362 15.8504 12.376Z" fill="white"/>
</svg>
